#!OML:ASF E:/inclinewalkrobotboard/Project1/Captureday1/Session1/subject1.ASF
:FULLY-SPECIFIED
:DEGREES
376
root 0 0 0 -0.38003481157877084 -2.0404236129074618 -3.8968273523145616
lowerback 16.59450146475303 1.0815389859271878 -0.13409526227956403
upperback 0.6076153795871833 1.413847620619367 0.3162276321326285
thorax -8.720961925133944 0.6681901051820587 0.04649626336243906
lowerneck -7.486802822990606 -3.2458514652958095 1.3754808043639217
upperneck -6.521105981840154 -4.199180549107256 1.6695063787752726
head -0.9054358402629727 -2.1866792748206163 0.21555718620653552
rclavicle -3.809192644401612E-16 2.069474261600533E-17
rhumerus 12.134220687673505 0.5963477817152363 -39.38096491527243
rradius 118.98148686457968
rwrist -30.891196508633186
rhand -11.637650008628864 -36.81496579259634
rfingers 7.125019999999965
rthumb 14.443368609408303 -66.22280917985093
lclavicle -3.729351996919709E-16 -4.3849964904473026E-16
lhumerus -43.64583580320353 -0.3739131565622258 83.19913265769881
lradius 45.68336102465069
lwrist 1.7783789145059217
lhand -15.245076670023224 -13.276975020943803
lfingers 7.125019999999942
lthumb 10.87991930425537 15.903512026077024
rfemur -2.6561125593310333 0.9868681388291831 5.308231582625995
rtibia 7.954988660282396
rfoot -1.4949533393846433 -1.293842093508061
rtoes 0.7598910620704766
lfemur -6.457551816720635 -3.610174788255641 -12.1148431522472
ltibia 27.29259013741792
lfoot -19.489723459002057 8.163665349744724
ltoes -43.949368599718724
377
root 0 0 0 -0.3799856746267555 -2.0404885993480533 -3.896941812114126
lowerback 16.595058824140605 1.08143254901384 -0.13417298417604206
upperback 0.6071199466265197 1.4136904953155511 0.31614050389688575
thorax -8.72176945655064 0.6681056399179963 0.0464376789152986
lowerneck -7.486991346236488 -3.245754444623012 1.3759425290903886
upperneck -6.5252189206996505 -4.198977808013375 1.6690825510545773
head -0.9067747737037699 -2.1866372015213305 0.2154078300058383
rclavicle -3.8091969505577004E-16 2.0719156983755937E-17
rhumerus 12.134404818692111 0.5970627085722757 -39.38059743241172
rradius 118.98290663670467
rwrist -30.89182884405382
rhand -11.637337756835095 -36.81672573327738
rfingers 7.125019999999965
rthumb 14.443663431399935 -66.22451313967125
lclavicle -3.7270472449768883E-16 -4.383316995147911E-16
lhumerus -43.64787301907478 -0.37380961730437645 83.19945337413972
lradius 45.68611646876184
lwrist 1.7772692704830133
lhand -15.242799606376828 -13.2841669633468
lfingers 7.125019999999942
lthumb 10.882086507033424 15.896601209823356
rfemur -2.65530321017227 0.9865552336439845 5.306586840314573
rtibia 7.952579968838448
rfoot -1.4944774882414564 -1.2934326095591984
rtoes 0.7596492110877726
lfemur -6.45721389273504 -3.6104092649989536 -12.114139598776891
ltibia 27.291921169551614
lfoot -19.49102657862809 8.16479458010489
ltoes -43.95313024771861
378
root 0 0 0 -0.379936262494158 -2.0405538851047185 -3.8970572204761544
lowerback 16.595618092812256 1.0813260449787552 -0.13425070891951751
upperback 0.6066215909260596 1.4135332649277899 0.31605277977843704
thorax -8.722580959739707 0.6680210728280636 0.04637833806410496
lowerneck -7.487181342574964 -3.2456573176568493 1.3764060753019538
upperneck -6.5293504735144055 -4.198774814243187 1.668657520255302
head -0.9081196814022245 -2.186595168678923 0.21525801501675873
rclavicle -3.8091998406674283E-16 2.0743725249442194E-17
rhumerus 12.134587447480278 0.5977833739168492 -39.38022939941985
rradius 118.98433372534599
rwrist -30.892464626590304
rhand -11.637022818395804 -36.81849901541146
rfingers 7.125019999999965
rthumb 14.443960791339931 -66.22622999919425
lclavicle -3.7247267126322637E-16 -4.3816256168594735E-16
lhumerus -43.64992434624625 -0.3737053618603161 83.19977630481284
lradius 45.68889094410911
lwrist 1.7761519439464792
lhand -15.240506830160122 -13.291408654262758
lfingers 7.125019999999942
lthumb 10.884268688109971 15.88964260734232
rfemur -2.654488141171732 0.9862400975477283 5.304930402341764
rtibia 7.950154206492318
rfoot -1.4939982394694482 -1.2930202240725692
rtoes 0.7594056299818166
lfemur -6.456873518085629 -3.6106454165008124 -12.113431081698565
ltibia 27.29124743084251
lfoot -19.49233893910394 8.165931802647691
ltoes -43.956918507827694
379
root 0 0 0 -0.37988656734076165 -2.0406194796895147 -3.8971736021033934
lowerback 16.59617934430014 1.0812194662529802 -0.1343284416525109
upperback 0.6061202273368023 1.4133759181464887 0.31596444296712756
thorax -8.723396560706774 0.6679363969422347 0.04631822277343822
lowerneck -7.48737285161371 -3.2455600772174678 1.3768715054453131
upperneck -6.533501251181569 -4.1985715514158946 1.6682312378559376
head -0.9094707605982038 -2.186553174968827 0.21510772348345295
rclavicle -3.8092012952165507E-16 2.0768451486743343E-17
rhumerus 12.134768564751326 0.5985099173735371 -39.37986078098072
rradius 118.98576834637416
rwrist -30.893103954960115
rhand -11.63670512947211 -36.82028597171934
rfingers 7.125019999999965
rthumb 14.444260749523858 -66.22796008024606
lclavicle -3.722389968323904E-16 -4.379922038574358E-16
lhumerus -43.651990162945054 -0.3736003700198023 83.20010150939518
lradius 45.691684959402764
lwrist 1.775026727815938
lhand -15.238197919834864 -13.298701427119163
lfingers 7.125019999999942
lthumb 10.886466249309041 15.882634937355297
rfemur -2.6536672005676154 0.9859226715389346 5.30326195912834
rtibia 7.947710920877606
rfoot -1.4935155032736995 -1.2926048601394151
rtoes 0.7591602730650866
lfemur -6.456530628125623 -3.610883287234948 -12.112717468735497
ltibia 27.290568794620803
lfoot -19.493660786248576 8.16707723013219
ltoes -43.9607340884306
